<mxfile host="app.diagrams.net" modified="2023-09-29T06:00:25.582Z" agent="Mozilla/5.0 (Windows NT 10.0; Win64; x64) AppleWebKit/537.36 (KHTML, like Gecko) Chrome/117.0.0.0 Safari/537.36" etag="_bpj9wGOjf1yK3L6u2RT" version="21.8.2" type="device">
  <diagram name="Page-1" id="P17yyzefL4xi3_36QRNX">
    <mxGraphModel dx="1838" dy="967" grid="0" gridSize="10" guides="1" tooltips="1" connect="1" arrows="1" fold="1" page="1" pageScale="1" pageWidth="3000" pageHeight="3000" math="0" shadow="0">
      <root>
        <mxCell id="0" />
        <mxCell id="1" parent="0" />
        <mxCell id="tk9_0FsykNDs3ZaUnvSC-13" style="edgeStyle=orthogonalEdgeStyle;rounded=0;orthogonalLoop=1;jettySize=auto;html=1;strokeColor=#E07A5F;fontColor=#393C56;fillColor=#F2CC8F;endArrow=none;endFill=0;" edge="1" parent="1" source="tk9_0FsykNDs3ZaUnvSC-8" target="8Cm02EMTZbCcTqb-3GgG-11">
          <mxGeometry relative="1" as="geometry" />
        </mxCell>
        <mxCell id="8Cm02EMTZbCcTqb-3GgG-6" value="Main (Controller)" style="shape=table;startSize=30;container=1;collapsible=0;childLayout=tableLayout;perimeterSpacing=10;swimlaneLine=1;rounded=1;labelBackgroundColor=none;fillColor=#F2CC8F;strokeColor=#E07A5F;fontColor=#393C56;" parent="1" vertex="1">
          <mxGeometry x="955" y="320" width="400" height="210" as="geometry" />
        </mxCell>
        <mxCell id="8Cm02EMTZbCcTqb-3GgG-7" value="" style="shape=tableRow;horizontal=0;startSize=0;swimlaneHead=0;swimlaneBody=0;strokeColor=#E07A5F;top=0;left=0;bottom=0;right=0;collapsible=0;dropTarget=0;fillColor=none;points=[[0,0.5],[1,0.5]];portConstraint=eastwest;swimlaneLine=1;labelBackgroundColor=none;fontColor=#393C56;" parent="8Cm02EMTZbCcTqb-3GgG-6" vertex="1">
          <mxGeometry y="30" width="400" height="90" as="geometry" />
        </mxCell>
        <mxCell id="8Cm02EMTZbCcTqb-3GgG-8" value="+SessionId:int&lt;br&gt;+SessionStartTime:datetime&lt;br&gt;+SessionStatus:string&lt;br&gt;+SessionEndTime:datetime" style="shape=partialRectangle;html=1;whiteSpace=wrap;connectable=0;strokeColor=#E07A5F;overflow=hidden;fillColor=none;top=0;left=0;bottom=0;right=0;pointerEvents=1;swimlaneLine=1;align=left;labelBackgroundColor=none;fontColor=#393C56;" parent="8Cm02EMTZbCcTqb-3GgG-7" vertex="1">
          <mxGeometry width="400" height="90" as="geometry">
            <mxRectangle width="400" height="90" as="alternateBounds" />
          </mxGeometry>
        </mxCell>
        <mxCell id="8Cm02EMTZbCcTqb-3GgG-9" value="" style="shape=tableRow;horizontal=0;startSize=0;swimlaneHead=0;swimlaneBody=0;strokeColor=#E07A5F;top=0;left=0;bottom=0;right=0;collapsible=0;dropTarget=0;fillColor=none;points=[[0,0.5],[1,0.5]];portConstraint=eastwest;swimlaneLine=1;labelBackgroundColor=none;fontColor=#393C56;" parent="8Cm02EMTZbCcTqb-3GgG-6" vertex="1">
          <mxGeometry y="120" width="400" height="90" as="geometry" />
        </mxCell>
        <mxCell id="8Cm02EMTZbCcTqb-3GgG-10" value="-HashPassword() : string&lt;br&gt;&lt;br&gt;+CreateUser(firstName, lastName, email, dob, ssn, hashedPassword, salt)&lt;br&gt;&lt;br&gt;-ValidatePassword() : string" style="shape=partialRectangle;html=1;whiteSpace=wrap;connectable=0;strokeColor=#E07A5F;overflow=hidden;fillColor=none;top=0;left=0;bottom=0;right=0;pointerEvents=1;swimlaneLine=1;align=left;labelBackgroundColor=none;fontColor=#393C56;" parent="8Cm02EMTZbCcTqb-3GgG-9" vertex="1">
          <mxGeometry width="400" height="90" as="geometry">
            <mxRectangle width="400" height="90" as="alternateBounds" />
          </mxGeometry>
        </mxCell>
        <mxCell id="8Cm02EMTZbCcTqb-3GgG-11" value="WebPage" style="shape=table;startSize=30;container=1;collapsible=0;childLayout=tableLayout;perimeterSpacing=10;swimlaneLine=1;rounded=1;labelBackgroundColor=none;fillColor=#F2CC8F;strokeColor=#E07A5F;fontColor=#393C56;" parent="1" vertex="1">
          <mxGeometry x="1010" y="600" width="290" height="170" as="geometry" />
        </mxCell>
        <mxCell id="8Cm02EMTZbCcTqb-3GgG-12" value="" style="shape=tableRow;horizontal=0;startSize=0;swimlaneHead=0;swimlaneBody=0;strokeColor=#E07A5F;top=0;left=0;bottom=0;right=0;collapsible=0;dropTarget=0;fillColor=none;points=[[0,0.5],[1,0.5]];portConstraint=eastwest;swimlaneLine=1;labelBackgroundColor=none;fontColor=#393C56;" parent="8Cm02EMTZbCcTqb-3GgG-11" vertex="1">
          <mxGeometry y="30" width="290" height="70" as="geometry" />
        </mxCell>
        <mxCell id="8Cm02EMTZbCcTqb-3GgG-13" value="+PageName: string&lt;br&gt;+PageStatus: string" style="shape=partialRectangle;html=1;whiteSpace=wrap;connectable=0;strokeColor=#E07A5F;overflow=hidden;fillColor=none;top=0;left=0;bottom=0;right=0;pointerEvents=1;swimlaneLine=1;align=left;labelBackgroundColor=none;fontColor=#393C56;" parent="8Cm02EMTZbCcTqb-3GgG-12" vertex="1">
          <mxGeometry width="290" height="70" as="geometry">
            <mxRectangle width="290" height="70" as="alternateBounds" />
          </mxGeometry>
        </mxCell>
        <mxCell id="8Cm02EMTZbCcTqb-3GgG-14" value="" style="shape=tableRow;horizontal=0;startSize=0;swimlaneHead=0;swimlaneBody=0;strokeColor=#E07A5F;top=0;left=0;bottom=0;right=0;collapsible=0;dropTarget=0;fillColor=none;points=[[0,0.5],[1,0.5]];portConstraint=eastwest;swimlaneLine=1;labelBackgroundColor=none;fontColor=#393C56;" parent="8Cm02EMTZbCcTqb-3GgG-11" vertex="1">
          <mxGeometry y="100" width="290" height="70" as="geometry" />
        </mxCell>
        <mxCell id="8Cm02EMTZbCcTqb-3GgG-15" value="" style="shape=partialRectangle;html=1;whiteSpace=wrap;connectable=0;strokeColor=#E07A5F;overflow=hidden;fillColor=none;top=0;left=0;bottom=0;right=0;pointerEvents=1;swimlaneLine=1;align=left;labelBackgroundColor=none;fontColor=#393C56;" parent="8Cm02EMTZbCcTqb-3GgG-14" vertex="1">
          <mxGeometry width="290" height="70" as="geometry">
            <mxRectangle width="290" height="70" as="alternateBounds" />
          </mxGeometry>
        </mxCell>
        <mxCell id="tk9_0FsykNDs3ZaUnvSC-5" style="edgeStyle=orthogonalEdgeStyle;rounded=0;orthogonalLoop=1;jettySize=auto;html=1;strokeColor=#E07A5F;fontColor=#393C56;fillColor=#F2CC8F;endArrow=none;endFill=0;" edge="1" parent="1" source="8Cm02EMTZbCcTqb-3GgG-16" target="8Cm02EMTZbCcTqb-3GgG-21">
          <mxGeometry relative="1" as="geometry" />
        </mxCell>
        <mxCell id="8Cm02EMTZbCcTqb-3GgG-16" value="User (Entity)" style="shape=table;startSize=30;container=1;collapsible=0;childLayout=tableLayout;perimeterSpacing=10;swimlaneLine=1;rounded=1;labelBackgroundColor=none;fillColor=#F2CC8F;strokeColor=#E07A5F;fontColor=#393C56;" parent="1" vertex="1">
          <mxGeometry x="631" y="320" width="240" height="200" as="geometry" />
        </mxCell>
        <mxCell id="8Cm02EMTZbCcTqb-3GgG-17" value="" style="shape=tableRow;horizontal=0;startSize=0;swimlaneHead=0;swimlaneBody=0;strokeColor=#E07A5F;top=0;left=0;bottom=0;right=0;collapsible=0;dropTarget=0;fillColor=none;points=[[0,0.5],[1,0.5]];portConstraint=eastwest;swimlaneLine=1;labelBackgroundColor=none;fontColor=#393C56;" parent="8Cm02EMTZbCcTqb-3GgG-16" vertex="1">
          <mxGeometry y="30" width="240" height="130" as="geometry" />
        </mxCell>
        <mxCell id="8Cm02EMTZbCcTqb-3GgG-18" value="-UserId:int&lt;br&gt;-FirstName:string&lt;br&gt;-LastName:string&lt;br&gt;-Email:string&lt;br&gt;-DOB:DateTime&lt;br&gt;-SSN:string&lt;br&gt;-HashedPassword:string&lt;br&gt;-Salt:string" style="shape=partialRectangle;html=1;whiteSpace=wrap;connectable=0;strokeColor=#E07A5F;overflow=hidden;fillColor=none;top=0;left=0;bottom=0;right=0;pointerEvents=1;swimlaneLine=1;align=left;labelBackgroundColor=none;fontColor=#393C56;" parent="8Cm02EMTZbCcTqb-3GgG-17" vertex="1">
          <mxGeometry width="240" height="130" as="geometry">
            <mxRectangle width="240" height="130" as="alternateBounds" />
          </mxGeometry>
        </mxCell>
        <mxCell id="8Cm02EMTZbCcTqb-3GgG-19" value="" style="shape=tableRow;horizontal=0;startSize=0;swimlaneHead=0;swimlaneBody=0;strokeColor=#E07A5F;top=0;left=0;bottom=0;right=0;collapsible=0;dropTarget=0;fillColor=none;points=[[0,0.5],[1,0.5]];portConstraint=eastwest;swimlaneLine=1;labelBackgroundColor=none;fontColor=#393C56;" parent="8Cm02EMTZbCcTqb-3GgG-16" vertex="1">
          <mxGeometry y="160" width="240" height="40" as="geometry" />
        </mxCell>
        <mxCell id="8Cm02EMTZbCcTqb-3GgG-20" value="-LoginUser()&lt;br&gt;-ChangePassword(password) // their own" style="shape=partialRectangle;html=1;whiteSpace=wrap;connectable=0;strokeColor=#E07A5F;overflow=hidden;fillColor=none;top=0;left=0;bottom=0;right=0;pointerEvents=1;swimlaneLine=1;align=left;labelBackgroundColor=none;fontColor=#393C56;" parent="8Cm02EMTZbCcTqb-3GgG-19" vertex="1">
          <mxGeometry width="240" height="40" as="geometry">
            <mxRectangle width="240" height="40" as="alternateBounds" />
          </mxGeometry>
        </mxCell>
        <mxCell id="tk9_0FsykNDs3ZaUnvSC-6" style="edgeStyle=orthogonalEdgeStyle;rounded=0;orthogonalLoop=1;jettySize=auto;html=1;strokeColor=#E07A5F;fontColor=#393C56;fillColor=#F2CC8F;endArrow=none;endFill=0;" edge="1" parent="1" source="8Cm02EMTZbCcTqb-3GgG-21" target="8Cm02EMTZbCcTqb-3GgG-12">
          <mxGeometry relative="1" as="geometry" />
        </mxCell>
        <mxCell id="8Cm02EMTZbCcTqb-3GgG-21" value="Admin (Role)" style="shape=table;startSize=30;container=1;collapsible=0;childLayout=tableLayout;perimeterSpacing=10;swimlaneLine=1;rounded=1;labelBackgroundColor=none;fillColor=#F2CC8F;strokeColor=#E07A5F;fontColor=#393C56;" parent="1" vertex="1">
          <mxGeometry x="651" y="610" width="200" height="110" as="geometry" />
        </mxCell>
        <mxCell id="8Cm02EMTZbCcTqb-3GgG-22" value="" style="shape=tableRow;horizontal=0;startSize=0;swimlaneHead=0;swimlaneBody=0;strokeColor=#E07A5F;top=0;left=0;bottom=0;right=0;collapsible=0;dropTarget=0;fillColor=none;points=[[0,0.5],[1,0.5]];portConstraint=eastwest;swimlaneLine=1;labelBackgroundColor=none;fontColor=#393C56;" parent="8Cm02EMTZbCcTqb-3GgG-21" vertex="1">
          <mxGeometry y="30" width="200" height="40" as="geometry" />
        </mxCell>
        <mxCell id="8Cm02EMTZbCcTqb-3GgG-23" value="" style="shape=partialRectangle;html=1;whiteSpace=wrap;connectable=0;strokeColor=#E07A5F;overflow=hidden;fillColor=none;top=0;left=0;bottom=0;right=0;pointerEvents=1;swimlaneLine=1;labelBackgroundColor=none;fontColor=#393C56;" parent="8Cm02EMTZbCcTqb-3GgG-22" vertex="1">
          <mxGeometry width="200" height="40" as="geometry">
            <mxRectangle width="200" height="40" as="alternateBounds" />
          </mxGeometry>
        </mxCell>
        <mxCell id="8Cm02EMTZbCcTqb-3GgG-24" value="" style="shape=tableRow;horizontal=0;startSize=0;swimlaneHead=0;swimlaneBody=0;strokeColor=#E07A5F;top=0;left=0;bottom=0;right=0;collapsible=0;dropTarget=0;fillColor=none;points=[[0,0.5],[1,0.5]];portConstraint=eastwest;swimlaneLine=1;labelBackgroundColor=none;fontColor=#393C56;" parent="8Cm02EMTZbCcTqb-3GgG-21" vertex="1">
          <mxGeometry y="70" width="200" height="40" as="geometry" />
        </mxCell>
        <mxCell id="8Cm02EMTZbCcTqb-3GgG-25" value="-ChangeUserPassword(password)" style="shape=partialRectangle;html=1;whiteSpace=wrap;connectable=0;strokeColor=#E07A5F;overflow=hidden;fillColor=none;top=0;left=0;bottom=0;right=0;pointerEvents=1;swimlaneLine=1;align=left;labelBackgroundColor=none;fontColor=#393C56;" parent="8Cm02EMTZbCcTqb-3GgG-24" vertex="1">
          <mxGeometry width="200" height="40" as="geometry">
            <mxRectangle width="200" height="40" as="alternateBounds" />
          </mxGeometry>
        </mxCell>
        <mxCell id="8Cm02EMTZbCcTqb-3GgG-69" style="edgeStyle=orthogonalEdgeStyle;rounded=0;orthogonalLoop=1;jettySize=auto;html=1;endArrow=none;endFill=0;labelBackgroundColor=none;strokeColor=#E07A5F;fontColor=default;" parent="1" source="8Cm02EMTZbCcTqb-3GgG-36" target="8Cm02EMTZbCcTqb-3GgG-11" edge="1">
          <mxGeometry relative="1" as="geometry">
            <Array as="points">
              <mxPoint x="1155" y="880" />
            </Array>
          </mxGeometry>
        </mxCell>
        <mxCell id="8Cm02EMTZbCcTqb-3GgG-36" value="RegisterPage (Boundary)" style="shape=table;startSize=30;container=1;collapsible=0;childLayout=tableLayout;perimeterSpacing=10;swimlaneLine=1;rounded=1;labelBackgroundColor=none;fillColor=#F2CC8F;strokeColor=#E07A5F;fontColor=#393C56;" parent="1" vertex="1">
          <mxGeometry x="631" y="815.6700000000001" width="410" height="143.65999999999985" as="geometry" />
        </mxCell>
        <mxCell id="8Cm02EMTZbCcTqb-3GgG-37" value="" style="shape=tableRow;horizontal=0;startSize=0;swimlaneHead=0;swimlaneBody=0;strokeColor=#E07A5F;top=0;left=0;bottom=0;right=0;collapsible=0;dropTarget=0;fillColor=none;points=[[0,0.5],[1,0.5]];portConstraint=eastwest;swimlaneLine=1;labelBackgroundColor=none;fontColor=#393C56;" parent="8Cm02EMTZbCcTqb-3GgG-36" vertex="1">
          <mxGeometry y="30" width="410" height="34" as="geometry" />
        </mxCell>
        <mxCell id="8Cm02EMTZbCcTqb-3GgG-38" value="" style="shape=partialRectangle;html=1;whiteSpace=wrap;connectable=0;strokeColor=#E07A5F;overflow=hidden;fillColor=none;top=0;left=0;bottom=0;right=0;pointerEvents=1;swimlaneLine=1;align=left;labelBackgroundColor=none;fontColor=#393C56;" parent="8Cm02EMTZbCcTqb-3GgG-37" vertex="1">
          <mxGeometry width="410" height="34" as="geometry">
            <mxRectangle width="410" height="34" as="alternateBounds" />
          </mxGeometry>
        </mxCell>
        <mxCell id="8Cm02EMTZbCcTqb-3GgG-39" value="" style="shape=tableRow;horizontal=0;startSize=0;swimlaneHead=0;swimlaneBody=0;strokeColor=#E07A5F;top=0;left=0;bottom=0;right=0;collapsible=0;dropTarget=0;fillColor=none;points=[[0,0.5],[1,0.5]];portConstraint=eastwest;swimlaneLine=1;labelBackgroundColor=none;fontColor=#393C56;" parent="8Cm02EMTZbCcTqb-3GgG-36" vertex="1">
          <mxGeometry y="64" width="410" height="80" as="geometry" />
        </mxCell>
        <mxCell id="8Cm02EMTZbCcTqb-3GgG-40" value="-RegisterUser(firstName, lastName, email, dob, ssn, hashedPassword, salt)&lt;br&gt;&lt;br&gt;-CheckUserExists(Email) : bool" style="shape=partialRectangle;html=1;whiteSpace=wrap;connectable=0;strokeColor=#E07A5F;overflow=hidden;fillColor=none;top=0;left=0;bottom=0;right=0;pointerEvents=1;swimlaneLine=1;align=left;labelBackgroundColor=none;fontColor=#393C56;" parent="8Cm02EMTZbCcTqb-3GgG-39" vertex="1">
          <mxGeometry width="410" height="80" as="geometry">
            <mxRectangle width="410" height="80" as="alternateBounds" />
          </mxGeometry>
        </mxCell>
        <mxCell id="8Cm02EMTZbCcTqb-3GgG-72" style="edgeStyle=orthogonalEdgeStyle;rounded=0;orthogonalLoop=1;jettySize=auto;html=1;endArrow=none;endFill=0;labelBackgroundColor=none;strokeColor=#E07A5F;fontColor=default;exitX=0;exitY=0.5;exitDx=0;exitDy=0;" parent="1" source="8Cm02EMTZbCcTqb-3GgG-47" target="8Cm02EMTZbCcTqb-3GgG-11" edge="1">
          <mxGeometry relative="1" as="geometry">
            <Array as="points">
              <mxPoint x="1155" y="989" />
            </Array>
          </mxGeometry>
        </mxCell>
        <mxCell id="8Cm02EMTZbCcTqb-3GgG-41" value="LoginPage (Boundary)" style="shape=table;startSize=30;container=1;collapsible=0;childLayout=tableLayout;perimeterSpacing=10;swimlaneLine=1;rounded=1;labelBackgroundColor=none;fillColor=#F2CC8F;strokeColor=#E07A5F;fontColor=#393C56;" parent="1" vertex="1">
          <mxGeometry x="1265" y="815.6700000000001" width="300" height="112.32999999999993" as="geometry" />
        </mxCell>
        <mxCell id="8Cm02EMTZbCcTqb-3GgG-42" value="" style="shape=tableRow;horizontal=0;startSize=0;swimlaneHead=0;swimlaneBody=0;strokeColor=#E07A5F;top=0;left=0;bottom=0;right=0;collapsible=0;dropTarget=0;fillColor=none;points=[[0,0.5],[1,0.5]];portConstraint=eastwest;swimlaneLine=1;labelBackgroundColor=none;fontColor=#393C56;" parent="8Cm02EMTZbCcTqb-3GgG-41" vertex="1">
          <mxGeometry y="30" width="300" height="27" as="geometry" />
        </mxCell>
        <mxCell id="8Cm02EMTZbCcTqb-3GgG-43" value="" style="shape=partialRectangle;html=1;whiteSpace=wrap;connectable=0;strokeColor=#E07A5F;overflow=hidden;fillColor=none;top=0;left=0;bottom=0;right=0;pointerEvents=1;swimlaneLine=1;align=left;labelBackgroundColor=none;fontColor=#393C56;" parent="8Cm02EMTZbCcTqb-3GgG-42" vertex="1">
          <mxGeometry width="300" height="27" as="geometry">
            <mxRectangle width="300" height="27" as="alternateBounds" />
          </mxGeometry>
        </mxCell>
        <mxCell id="8Cm02EMTZbCcTqb-3GgG-44" value="" style="shape=tableRow;horizontal=0;startSize=0;swimlaneHead=0;swimlaneBody=0;strokeColor=#E07A5F;top=0;left=0;bottom=0;right=0;collapsible=0;dropTarget=0;fillColor=none;points=[[0,0.5],[1,0.5]];portConstraint=eastwest;swimlaneLine=1;labelBackgroundColor=none;fontColor=#393C56;" parent="8Cm02EMTZbCcTqb-3GgG-41" vertex="1">
          <mxGeometry y="57" width="300" height="55" as="geometry" />
        </mxCell>
        <mxCell id="8Cm02EMTZbCcTqb-3GgG-45" value="+Login(email, password)&lt;br&gt;&lt;br&gt;-ValidateUser(userId, hashedPassword, salt) : bool&amp;nbsp;" style="shape=partialRectangle;html=1;whiteSpace=wrap;connectable=0;strokeColor=#E07A5F;overflow=hidden;fillColor=none;top=0;left=0;bottom=0;right=0;pointerEvents=1;swimlaneLine=1;align=left;labelBackgroundColor=none;fontColor=#393C56;" parent="8Cm02EMTZbCcTqb-3GgG-44" vertex="1">
          <mxGeometry width="300" height="55" as="geometry">
            <mxRectangle width="300" height="55" as="alternateBounds" />
          </mxGeometry>
        </mxCell>
        <mxCell id="8Cm02EMTZbCcTqb-3GgG-73" style="edgeStyle=orthogonalEdgeStyle;rounded=0;orthogonalLoop=1;jettySize=auto;html=1;endArrow=none;endFill=0;labelBackgroundColor=none;strokeColor=#E07A5F;fontColor=default;" parent="1" source="8Cm02EMTZbCcTqb-3GgG-41" target="8Cm02EMTZbCcTqb-3GgG-11" edge="1">
          <mxGeometry relative="1" as="geometry">
            <Array as="points">
              <mxPoint x="1155" y="872" />
            </Array>
          </mxGeometry>
        </mxCell>
        <mxCell id="8Cm02EMTZbCcTqb-3GgG-46" value="ViewAllUserAccountsPage (Boundary)" style="shape=table;startSize=30;container=1;collapsible=0;childLayout=tableLayout;perimeterSpacing=10;swimlaneLine=1;rounded=1;labelBackgroundColor=none;fillColor=#F2CC8F;strokeColor=#E07A5F;fontColor=#393C56;" parent="1" vertex="1">
          <mxGeometry x="1265" y="948.0000000000001" width="287" height="139.23899876644745" as="geometry" />
        </mxCell>
        <mxCell id="8Cm02EMTZbCcTqb-3GgG-47" value="" style="shape=tableRow;horizontal=0;startSize=0;swimlaneHead=0;swimlaneBody=0;strokeColor=#E07A5F;top=0;left=0;bottom=0;right=0;collapsible=0;dropTarget=0;fillColor=none;points=[[0,0.5],[1,0.5]];portConstraint=eastwest;swimlaneLine=1;labelBackgroundColor=none;fontColor=#393C56;" parent="8Cm02EMTZbCcTqb-3GgG-46" vertex="1">
          <mxGeometry y="30" width="287" height="21" as="geometry" />
        </mxCell>
        <mxCell id="8Cm02EMTZbCcTqb-3GgG-48" value="" style="shape=partialRectangle;html=1;whiteSpace=wrap;connectable=0;strokeColor=#E07A5F;overflow=hidden;fillColor=none;top=0;left=0;bottom=0;right=0;pointerEvents=1;swimlaneLine=1;align=left;labelBackgroundColor=none;fontColor=#393C56;" parent="8Cm02EMTZbCcTqb-3GgG-47" vertex="1">
          <mxGeometry width="287" height="21" as="geometry">
            <mxRectangle width="287" height="21" as="alternateBounds" />
          </mxGeometry>
        </mxCell>
        <mxCell id="8Cm02EMTZbCcTqb-3GgG-49" value="" style="shape=tableRow;horizontal=0;startSize=0;swimlaneHead=0;swimlaneBody=0;strokeColor=#E07A5F;top=0;left=0;bottom=0;right=0;collapsible=0;dropTarget=0;fillColor=none;points=[[0,0.5],[1,0.5]];portConstraint=eastwest;swimlaneLine=1;labelBackgroundColor=none;fontColor=#393C56;" parent="8Cm02EMTZbCcTqb-3GgG-46" vertex="1">
          <mxGeometry y="51" width="287" height="88" as="geometry" />
        </mxCell>
        <mxCell id="8Cm02EMTZbCcTqb-3GgG-50" value="-GetAllUsers() : List&amp;lt;Users&amp;gt;&lt;br&gt;&lt;br&gt;-GetUserById(userId) : User&lt;br&gt;&lt;br&gt;-GetUserByName(userName) : User" style="shape=partialRectangle;html=1;whiteSpace=wrap;connectable=0;strokeColor=#E07A5F;overflow=hidden;fillColor=none;top=0;left=0;bottom=0;right=0;pointerEvents=1;swimlaneLine=1;align=left;labelBackgroundColor=none;fontColor=#393C56;" parent="8Cm02EMTZbCcTqb-3GgG-49" vertex="1">
          <mxGeometry width="287" height="88" as="geometry">
            <mxRectangle width="287" height="88" as="alternateBounds" />
          </mxGeometry>
        </mxCell>
        <mxCell id="8Cm02EMTZbCcTqb-3GgG-51" value="ChangeUserPasswordPage (Boundary)" style="shape=table;startSize=30;container=1;collapsible=0;childLayout=tableLayout;perimeterSpacing=10;swimlaneLine=1;rounded=1;labelBackgroundColor=none;fillColor=#F2CC8F;strokeColor=#E07A5F;fontColor=#393C56;" parent="1" vertex="1">
          <mxGeometry x="631" y="976.0000000000001" width="395" height="148.2099877929686" as="geometry" />
        </mxCell>
        <mxCell id="8Cm02EMTZbCcTqb-3GgG-52" value="" style="shape=tableRow;horizontal=0;startSize=0;swimlaneHead=0;swimlaneBody=0;strokeColor=#E07A5F;top=0;left=0;bottom=0;right=0;collapsible=0;dropTarget=0;fillColor=none;points=[[0,0.5],[1,0.5]];portConstraint=eastwest;swimlaneLine=1;labelBackgroundColor=none;fontColor=#393C56;" parent="8Cm02EMTZbCcTqb-3GgG-51" vertex="1">
          <mxGeometry y="30" width="395" height="22" as="geometry" />
        </mxCell>
        <mxCell id="8Cm02EMTZbCcTqb-3GgG-53" value="" style="shape=partialRectangle;html=1;whiteSpace=wrap;connectable=0;strokeColor=#E07A5F;overflow=hidden;fillColor=none;top=0;left=0;bottom=0;right=0;pointerEvents=1;swimlaneLine=1;align=left;labelBackgroundColor=none;fontColor=#393C56;" parent="8Cm02EMTZbCcTqb-3GgG-52" vertex="1">
          <mxGeometry width="395" height="22" as="geometry">
            <mxRectangle width="395" height="22" as="alternateBounds" />
          </mxGeometry>
        </mxCell>
        <mxCell id="8Cm02EMTZbCcTqb-3GgG-54" value="" style="shape=tableRow;horizontal=0;startSize=0;swimlaneHead=0;swimlaneBody=0;strokeColor=#E07A5F;top=0;left=0;bottom=0;right=0;collapsible=0;dropTarget=0;fillColor=none;points=[[0,0.5],[1,0.5]];portConstraint=eastwest;swimlaneLine=1;labelBackgroundColor=none;fontColor=#393C56;" parent="8Cm02EMTZbCcTqb-3GgG-51" vertex="1">
          <mxGeometry y="52" width="395" height="96" as="geometry" />
        </mxCell>
        <mxCell id="8Cm02EMTZbCcTqb-3GgG-55" value="-ChangeUserPassword(userId, hashedPassword)&lt;br&gt;&lt;br&gt;-GetUserSalt(userId) : string&lt;br&gt;&lt;br&gt;-HashPassword(salt, password) : string&amp;nbsp;" style="shape=partialRectangle;html=1;whiteSpace=wrap;connectable=0;strokeColor=#E07A5F;overflow=hidden;fillColor=none;top=0;left=0;bottom=0;right=0;pointerEvents=1;swimlaneLine=1;align=left;labelBackgroundColor=none;fontColor=#393C56;" parent="8Cm02EMTZbCcTqb-3GgG-54" vertex="1">
          <mxGeometry width="395" height="96" as="geometry">
            <mxRectangle width="395" height="96" as="alternateBounds" />
          </mxGeometry>
        </mxCell>
        <mxCell id="8Cm02EMTZbCcTqb-3GgG-70" style="edgeStyle=orthogonalEdgeStyle;rounded=0;orthogonalLoop=1;jettySize=auto;html=1;endArrow=none;endFill=0;labelBackgroundColor=none;strokeColor=#E07A5F;fontColor=default;" parent="1" source="tk9_0FsykNDs3ZaUnvSC-1" target="8Cm02EMTZbCcTqb-3GgG-11" edge="1">
          <mxGeometry relative="1" as="geometry">
            <Array as="points">
              <mxPoint x="1155" y="872.6700000000001" />
            </Array>
            <mxPoint x="1155" y="806.835" as="sourcePoint" />
          </mxGeometry>
        </mxCell>
        <mxCell id="8Cm02EMTZbCcTqb-3GgG-75" value="" style="edgeStyle=orthogonalEdgeStyle;rounded=0;orthogonalLoop=1;jettySize=auto;html=1;endArrow=none;endFill=0;labelBackgroundColor=none;strokeColor=#E07A5F;fontColor=default;" parent="1" source="tk9_0FsykNDs3ZaUnvSC-1" edge="1">
          <mxGeometry relative="1" as="geometry">
            <mxPoint x="985" y="1072.67" as="sourcePoint" />
            <mxPoint x="1155" y="806.835" as="targetPoint" />
            <Array as="points" />
          </mxGeometry>
        </mxCell>
        <mxCell id="8Cm02EMTZbCcTqb-3GgG-90" style="edgeStyle=orthogonalEdgeStyle;rounded=0;orthogonalLoop=1;jettySize=auto;html=1;strokeColor=#E07A5F;fontColor=default;fillColor=#F2CC8F;endArrow=none;endFill=0;labelBackgroundColor=none;" parent="1" target="8Cm02EMTZbCcTqb-3GgG-6" edge="1">
          <mxGeometry relative="1" as="geometry">
            <mxPoint x="1155" y="563.165" as="sourcePoint" />
            <Array as="points">
              <mxPoint x="1156" y="563" />
              <mxPoint x="1156" y="600" />
              <mxPoint x="1155" y="600" />
            </Array>
          </mxGeometry>
        </mxCell>
        <mxCell id="tk9_0FsykNDs3ZaUnvSC-2" value="" style="edgeStyle=orthogonalEdgeStyle;rounded=0;orthogonalLoop=1;jettySize=auto;html=1;endArrow=none;endFill=0;labelBackgroundColor=none;strokeColor=#E07A5F;fontColor=default;" edge="1" parent="1" source="8Cm02EMTZbCcTqb-3GgG-51" target="tk9_0FsykNDs3ZaUnvSC-1">
          <mxGeometry relative="1" as="geometry">
            <mxPoint x="995" y="1070" as="sourcePoint" />
            <mxPoint x="1155" y="806.835" as="targetPoint" />
            <Array as="points">
              <mxPoint x="1155" y="1026" />
            </Array>
          </mxGeometry>
        </mxCell>
        <mxCell id="tk9_0FsykNDs3ZaUnvSC-3" value="" style="edgeStyle=orthogonalEdgeStyle;rounded=0;orthogonalLoop=1;jettySize=auto;html=1;endArrow=none;endFill=0;labelBackgroundColor=none;strokeColor=#E07A5F;fontColor=default;" edge="1" parent="1" target="tk9_0FsykNDs3ZaUnvSC-1">
          <mxGeometry relative="1" as="geometry">
            <Array as="points">
              <mxPoint x="1155" y="872.6700000000001" />
            </Array>
            <mxPoint x="1155" y="806.835" as="sourcePoint" />
            <mxPoint x="1155" y="780" as="targetPoint" />
          </mxGeometry>
        </mxCell>
        <mxCell id="tk9_0FsykNDs3ZaUnvSC-1" value="" style="rhombus;whiteSpace=wrap;html=1;labelBackgroundColor=none;fillColor=#F2CC8F;strokeColor=#E07A5F;fontColor=#393C56;" vertex="1" parent="1">
          <mxGeometry x="1133.5" y="769.67" width="43" height="43" as="geometry" />
        </mxCell>
        <mxCell id="tk9_0FsykNDs3ZaUnvSC-4" value="" style="rhombus;whiteSpace=wrap;html=1;labelBackgroundColor=none;fillColor=#F2CC8F;strokeColor=#E07A5F;fontColor=#393C56;" vertex="1" parent="1">
          <mxGeometry x="1133.5" y="557" width="43" height="43" as="geometry" />
        </mxCell>
        <mxCell id="tk9_0FsykNDs3ZaUnvSC-8" value="ElevateUserRolePage (Boundary)" style="shape=table;startSize=30;container=1;collapsible=0;childLayout=tableLayout;perimeterSpacing=10;swimlaneLine=1;rounded=1;labelBackgroundColor=none;fillColor=#F2CC8F;strokeColor=#E07A5F;fontColor=#393C56;" vertex="1" parent="1">
          <mxGeometry x="957.5" y="1140" width="395" height="109.42732602326782" as="geometry" />
        </mxCell>
        <mxCell id="tk9_0FsykNDs3ZaUnvSC-9" value="" style="shape=tableRow;horizontal=0;startSize=0;swimlaneHead=0;swimlaneBody=0;strokeColor=#E07A5F;top=0;left=0;bottom=0;right=0;collapsible=0;dropTarget=0;fillColor=none;points=[[0,0.5],[1,0.5]];portConstraint=eastwest;swimlaneLine=1;labelBackgroundColor=none;fontColor=#393C56;" vertex="1" parent="tk9_0FsykNDs3ZaUnvSC-8">
          <mxGeometry y="30" width="395" height="22" as="geometry" />
        </mxCell>
        <mxCell id="tk9_0FsykNDs3ZaUnvSC-10" value="" style="shape=partialRectangle;html=1;whiteSpace=wrap;connectable=0;strokeColor=#E07A5F;overflow=hidden;fillColor=none;top=0;left=0;bottom=0;right=0;pointerEvents=1;swimlaneLine=1;align=left;labelBackgroundColor=none;fontColor=#393C56;" vertex="1" parent="tk9_0FsykNDs3ZaUnvSC-9">
          <mxGeometry width="395" height="22" as="geometry">
            <mxRectangle width="395" height="22" as="alternateBounds" />
          </mxGeometry>
        </mxCell>
        <mxCell id="tk9_0FsykNDs3ZaUnvSC-11" value="" style="shape=tableRow;horizontal=0;startSize=0;swimlaneHead=0;swimlaneBody=0;strokeColor=#E07A5F;top=0;left=0;bottom=0;right=0;collapsible=0;dropTarget=0;fillColor=none;points=[[0,0.5],[1,0.5]];portConstraint=eastwest;swimlaneLine=1;labelBackgroundColor=none;fontColor=#393C56;" vertex="1" parent="tk9_0FsykNDs3ZaUnvSC-8">
          <mxGeometry y="52" width="395" height="57" as="geometry" />
        </mxCell>
        <mxCell id="tk9_0FsykNDs3ZaUnvSC-12" value="-ChangeUserRole(userId)&amp;nbsp;&lt;br&gt;&lt;br&gt;-GetUserCurrentRole(userId) : Role" style="shape=partialRectangle;html=1;whiteSpace=wrap;connectable=0;strokeColor=#E07A5F;overflow=hidden;fillColor=none;top=0;left=0;bottom=0;right=0;pointerEvents=1;swimlaneLine=1;align=left;labelBackgroundColor=none;fontColor=#393C56;" vertex="1" parent="tk9_0FsykNDs3ZaUnvSC-11">
          <mxGeometry width="395" height="57" as="geometry">
            <mxRectangle width="395" height="57" as="alternateBounds" />
          </mxGeometry>
        </mxCell>
      </root>
    </mxGraphModel>
  </diagram>
</mxfile>
